# xmcd
#
# Track frame offsets:
#        187
#        22245
#        40880
#        58645
#        74827
#        90880
#        112610
#        130697
#        153212
#        170840
#
# Disc length: 2746 seconds
#
# Revision: 0
# Processed by: cddbd v1.5.1PL0 Copyright (c) Steve Scherf et al.
# Submitted via: ExactAudioCopy v0.95a3
#
DISCID=7e0ab80a
DTITLE=HIROKO - ONE IN A MILLION
DYEAR=1988
DGENRE=JPop
TTITLE0=MEET ME AT MIDNIGHT
TTITLE1=LOVE STRUCK
TTITLE2=SMILE FOR THE CAMERA
TTITLE3=DANCE WITH ME
TTITLE4=GOLDEN LADY
TTITLE5=ONE IN A MILLION
TTITLE6=NEVER GIVE UP
TTITLE7=TUFF
TTITLE8=WAIT FOR ME
TTITLE9=MEET ME AT MIDNIGHT(EXTENDED)
EXTD=
EXTT0=
EXTT1=
EXTT2=
EXTT3=
EXTT4=
EXTT5=
EXTT6=
EXTT7=
EXTT8=
EXTT9=
PLAYORDER=
